<?xml version="1.0" encoding="UTF-8"?>
<!DOCTYPE svg PUBLIC "-//W3C//DTD SVG 1.1//EN" "http://www.w3.org/Graphics/SVG/1.1/DTD/svg11.dtd">
<svg xmlns="http://www.w3.org/2000/svg" version="1.1" width="233px" height="233px" style="shape-rendering:geometricPrecision; text-rendering:geometricPrecision; image-rendering:optimizeQuality; fill-rule:evenodd; clip-rule:evenodd" xmlns:xlink="http://www.w3.org/1999/xlink">
<g><path style="opacity:1" fill="#fcfdfb" d="M -0.5,-0.5 C 34.1667,-0.5 68.8333,-0.5 103.5,-0.5C 103.5,-0.166667 103.5,0.166667 103.5,0.5C 90.2508,2.13844 77.5841,5.80511 65.5,11.5C 64.3054,11.8656 63.6387,12.699 63.5,14C 64.1545,41.8095 64.8211,69.6428 65.5,97.5C 66.7387,97.0576 67.7387,96.3909 68.5,95.5C 77.4816,88.8578 86.4816,82.1912 95.5,75.5C 97.0861,74.5868 98.5861,74.5868 100,75.5C 100.5,84.1603 100.666,92.8269 100.5,101.5C 94.5441,106.447 88.5441,111.447 82.5,116.5C 87.6539,121.735 93.6539,125.402 100.5,127.5C 104.007,129.754 107.673,131.754 111.5,133.5C 112.919,134.451 114.585,134.784 116.5,134.5C 116.5,115.5 116.5,96.5 116.5,77.5C 117.451,76.0813 117.784,74.4147 117.5,72.5C 129.505,72.3335 141.505,72.5001 153.5,73C 155.421,73.3603 157.088,74.1936 158.5,75.5C 159.736,74.7542 161.07,74.4208 162.5,74.5C 173.793,78.7937 181.793,86.4604 186.5,97.5C 187.662,102.307 188.995,106.974 190.5,111.5C 190.167,116.833 189.833,122.167 189.5,127.5C 184.922,143.376 174.922,154.042 159.5,159.5C 158.833,159.5 158.167,159.5 157.5,159.5C 152.3,160.319 147.133,160.319 142,159.5C 140.97,159.836 140.47,160.503 140.5,161.5C 139.503,183.994 139.169,206.661 139.5,229.5C 141.735,229.795 143.735,229.461 145.5,228.5C 150.448,227.347 155.115,225.68 159.5,223.5C 166.45,220.692 173.117,217.358 179.5,213.5C 182.541,213.449 185.208,212.449 187.5,210.5C 188.672,210.919 189.672,211.585 190.5,212.5C 191.622,210.956 191.289,209.623 189.5,208.5C 190.853,207.476 191.52,206.143 191.5,204.5C 205.344,191.832 216.011,176.832 223.5,159.5C 223.833,159.5 224.167,159.5 224.5,159.5C 226.093,158.652 227.26,157.319 228,155.5C 228.498,152.183 228.665,148.85 228.5,145.5C 229.323,139.256 230.657,133.256 232.5,127.5C 232.5,162.5 232.5,197.5 232.5,232.5C 193.5,232.5 154.5,232.5 115.5,232.5C 115.5,207.833 115.5,183.167 115.5,158.5C 109.204,155.963 102.538,153.963 95.5,152.5C 88.9258,150.546 82.9258,147.546 77.5,143.5C 77.9038,142.244 78.5705,141.077 79.5,140C 79.1667,139.5 78.8333,139 78.5,138.5C 75.9386,141.147 74.4386,140.48 74,136.5C 70.9528,137.39 68.7861,136.224 67.5,133C 69.1667,131.333 70.8333,129.667 72.5,128C 71.5,127.333 70.5,127.333 69.5,128C 67.5614,128.908 66.5614,130.408 66.5,132.5C 65.5,132.5 64.5,132.5 63.5,132.5C 63.1872,136.042 63.5206,139.375 64.5,142.5C 64.7886,148.591 64.4553,154.591 63.5,160.5C 56.1667,160.5 48.8333,160.5 41.5,160.5C 41.5,116.167 41.5,71.8333 41.5,27.5C 39.8333,27.5 38.1667,27.5 36.5,27.5C 36.5,28.8333 36.5,30.1667 36.5,31.5C 35.0689,32.0819 33.7356,32.9152 32.5,34C 31.7476,34.6708 31.4142,35.5041 31.5,36.5C 22.4223,46.3177 15.0889,57.3177 9.5,69.5C 5.22839,80.5921 1.89505,91.9254 -0.5,103.5C -0.5,68.8333 -0.5,34.1667 -0.5,-0.5 Z"/></g>
<g><path style="opacity:1" fill="#fcfefb" d="M 103.5,0.5 C 103.5,0.166667 103.5,-0.166667 103.5,-0.5C 146.5,-0.5 189.5,-0.5 232.5,-0.5C 232.5,35.1667 232.5,70.8333 232.5,106.5C 231.387,100.298 230.221,93.965 229,87.5C 228.434,85.2774 227.6,83.2774 226.5,81.5C 223.464,69.3939 218.13,58.3939 210.5,48.5C 209.675,47.6143 208.675,47.281 207.5,47.5C 207.657,46.1266 207.49,44.7932 207,43.5C 190.191,23.498 169.024,10.1647 143.5,3.5C 130.433,0.950547 117.099,-0.0494528 103.5,0.5 Z"/></g>
<g><path style="opacity:1" fill="#4fa803" d="M 143.5,3.5 C 169.024,10.1647 190.191,23.498 207,43.5C 207.49,44.7932 207.657,46.1266 207.5,47.5C 208.675,47.281 209.675,47.6143 210.5,48.5C 218.13,58.3939 223.464,69.3939 226.5,81.5C 227.058,85.0105 227.724,88.5105 228.5,92C 228.173,93.8133 227.507,95.48 226.5,97C 228.32,98.8067 229.487,100.973 230,103.5C 230.658,112.347 230.491,121.18 229.5,130C 227.296,139.818 225.296,149.651 223.5,159.5C 216.011,176.832 205.344,191.832 191.5,204.5C 187.476,207.531 183.476,210.531 179.5,213.5C 173.117,217.358 166.45,220.692 159.5,223.5C 153.744,225.532 147.744,226.532 141.5,226.5C 141.167,205.823 141.5,185.156 142.5,164.5C 146.111,163.738 149.778,163.238 153.5,163C 156.152,162.647 158.152,161.48 159.5,159.5C 174.922,154.042 184.922,143.376 189.5,127.5C 191.428,122.233 191.761,116.9 190.5,111.5C 190.554,106.341 189.221,101.675 186.5,97.5C 181.793,86.4604 173.793,78.7937 162.5,74.5C 160.123,73.1127 157.457,72.2794 154.5,72C 141.838,71.5001 129.171,71.3334 116.5,71.5C 116.167,71.5 115.833,71.5 115.5,71.5C 114.503,91.3264 114.17,111.326 114.5,131.5C 109.715,130.346 105.048,129.013 100.5,127.5C 93.6539,125.402 87.6539,121.735 82.5,116.5C 88.5441,111.447 94.5441,106.447 100.5,101.5C 101.823,91.6589 101.823,81.6589 100.5,71.5C 98.5808,72.6125 96.9142,73.9458 95.5,75.5C 86.4816,82.1912 77.4816,88.8578 68.5,95.5C 67.8333,95.5 67.1667,95.5 66.5,95.5C 66.1669,68.825 66.5002,42.1583 67.5,15.5C 69.9757,14.1912 71.9757,12.3579 73.5,10C 87.4692,3.83072 102.136,1.33072 117.5,2.5C 126.178,2.67675 134.844,3.01008 143.5,3.5 Z"/></g>
<g><path style="opacity:1" fill="#b1d484" d="M 65.5,11.5 C 65.1687,39.6716 65.502,67.6716 66.5,95.5C 67.1667,95.5 67.8333,95.5 68.5,95.5C 67.7387,96.3909 66.7387,97.0576 65.5,97.5C 64.8211,69.6428 64.1545,41.8095 63.5,14C 63.6387,12.699 64.3054,11.8656 65.5,11.5 Z"/></g>
<g><path style="opacity:1" fill="#5da518" d="M 103.5,0.5 C 117.099,-0.0494528 130.433,0.950547 143.5,3.5C 134.844,3.01008 126.178,2.67675 117.5,2.5C 102.136,1.33072 87.4692,3.83072 73.5,10C 71.9757,12.3579 69.9757,14.1912 67.5,15.5C 66.5002,42.1583 66.1669,68.825 66.5,95.5C 65.502,67.6716 65.1687,39.6716 65.5,11.5C 77.5841,5.80511 90.2508,2.13844 103.5,0.5 Z"/></g>
<g><path style="opacity:1" fill="#8ab958" d="M 36.5,31.5 C 36.5,34.8333 34.8333,36.5 31.5,36.5C 31.4142,35.5041 31.7476,34.6708 32.5,34C 33.7356,32.9152 35.0689,32.0819 36.5,31.5 Z"/></g>
<g><path style="opacity:1" fill="#e3fece" d="M 63.5,160.5 C 63.5,160.833 63.5,161.167 63.5,161.5C 55.8333,161.5 48.1667,161.5 40.5,161.5C 40.6667,117.165 40.5,72.8321 40,28.5C 38.955,29.3734 38.1217,30.3734 37.5,31.5C 37.1667,31.5 36.8333,31.5 36.5,31.5C 36.5,30.1667 36.5,28.8333 36.5,27.5C 38.1667,27.5 39.8333,27.5 41.5,27.5C 41.5,71.8333 41.5,116.167 41.5,160.5C 48.8333,160.5 56.1667,160.5 63.5,160.5 Z"/></g>
<g><path style="opacity:1" fill="#5c9e25" d="M 40.5,161.5 C 39.6236,161.631 38.9569,161.298 38.5,160.5C 39.1614,138.875 39.4947,117.209 39.5,95.5C 39.4997,73.8227 38.833,52.4894 37.5,31.5C 38.1217,30.3734 38.955,29.3734 40,28.5C 40.5,72.8321 40.6667,117.165 40.5,161.5 Z"/></g>
<g><path style="opacity:1" fill="#4fa803" d="M 36.5,31.5 C 36.8333,31.5 37.1667,31.5 37.5,31.5C 38.833,52.4894 39.4997,73.8227 39.5,95.5C 39.4947,117.209 39.1614,138.875 38.5,160.5C 38.9569,161.298 39.6236,161.631 40.5,161.5C 48.1667,161.5 55.8333,161.5 63.5,161.5C 65.1555,153.048 66.1555,144.381 66.5,135.5C 70.1667,138.167 73.8333,140.833 77.5,143.5C 82.9258,147.546 88.9258,150.546 95.5,152.5C 98.5,153.833 101.5,155.167 104.5,156.5C 107.495,158.243 110.829,159.243 114.5,159.5C 114.5,183.833 114.5,208.167 114.5,232.5C 110.167,232.5 105.833,232.5 101.5,232.5C 50.4577,223.127 17.791,193.46 3.5,143.5C 3.43116,138.146 3.09782,132.813 2.5,127.5C 3.5,127.5 4.5,127.5 5.5,127.5C 4.23699,119.642 4.23699,111.642 5.5,103.5C 5.31984,100.044 4.65317,96.7111 3.5,93.5C 7.11545,85.9823 9.11545,77.9823 9.5,69.5C 15.0889,57.3177 22.4223,46.3177 31.5,36.5C 34.8333,36.5 36.5,34.8333 36.5,31.5 Z"/></g>
<g><path style="opacity:1" fill="#edfce3" d="M 116.5,71.5 C 129.171,71.3334 141.838,71.5001 154.5,72C 157.457,72.2794 160.123,73.1127 162.5,74.5C 161.07,74.4208 159.736,74.7542 158.5,75.5C 157.088,74.1936 155.421,73.3603 153.5,73C 141.505,72.5001 129.505,72.3335 117.5,72.5C 117.784,74.4147 117.451,76.0813 116.5,77.5C 116.5,75.5 116.5,73.5 116.5,71.5 Z"/></g>
<g><path style="opacity:1" fill="#bae296" d="M 100.5,101.5 C 100.666,92.8269 100.5,84.1603 100,75.5C 98.5861,74.5868 97.0861,74.5868 95.5,75.5C 96.9142,73.9458 98.5808,72.6125 100.5,71.5C 101.823,81.6589 101.823,91.6589 100.5,101.5 Z"/></g>
<g><path style="opacity:1" fill="#639f24" d="M 115.5,71.5 C 115.5,92.1667 115.5,112.833 115.5,133.5C 114.167,133.5 112.833,133.5 111.5,133.5C 107.673,131.754 104.007,129.754 100.5,127.5C 105.048,129.013 109.715,130.346 114.5,131.5C 114.17,111.326 114.503,91.3264 115.5,71.5 Z"/></g>
<g><path style="opacity:1" fill="#d1f3b7" d="M 115.5,71.5 C 115.833,71.5 116.167,71.5 116.5,71.5C 116.5,73.5 116.5,75.5 116.5,77.5C 116.5,96.5 116.5,115.5 116.5,134.5C 114.585,134.784 112.919,134.451 111.5,133.5C 112.833,133.5 114.167,133.5 115.5,133.5C 115.5,112.833 115.5,92.1667 115.5,71.5 Z"/></g>
<g><path style="opacity:1" fill="#e4fccd" d="M 186.5,97.5 C 189.221,101.675 190.554,106.341 190.5,111.5C 188.995,106.974 187.662,102.307 186.5,97.5 Z"/></g>
<g><path style="opacity:1" fill="#bce399" d="M 140.5,95.5 C 140.5,109.167 140.5,122.833 140.5,136.5C 143.167,136.5 145.833,136.5 148.5,136.5C 145.713,137.477 142.713,137.81 139.5,137.5C 139.5,134.167 139.5,130.833 139.5,127.5C 139.172,116.654 139.506,105.987 140.5,95.5 Z"/></g>
<g><path style="opacity:1" fill="#52a709" d="M 140.5,95.5 C 158.97,94.4694 167.47,103.136 166,121.5C 165.333,123.5 164.667,125.5 164,127.5C 161.873,129.114 160.373,131.114 159.5,133.5C 155.914,134.793 152.248,135.793 148.5,136.5C 145.833,136.5 143.167,136.5 140.5,136.5C 140.5,122.833 140.5,109.167 140.5,95.5 Z"/></g>
<g><path style="opacity:1" fill="#5aa818" d="M 9.5,69.5 C 9.11545,77.9823 7.11545,85.9823 3.5,93.5C 4.65317,96.7111 5.31984,100.044 5.5,103.5C 4.23699,111.642 4.23699,119.642 5.5,127.5C 4.5,127.5 3.5,127.5 2.5,127.5C 3.09782,132.813 3.43116,138.146 3.5,143.5C 3.16667,143.5 2.83333,143.5 2.5,143.5C 2.6558,139.236 1.98914,135.236 0.5,131.5C 0.767809,129.901 0.434475,128.568 -0.5,127.5C -0.5,119.5 -0.5,111.5 -0.5,103.5C 1.89505,91.9254 5.22839,80.5921 9.5,69.5 Z"/></g>
<g><path style="opacity:1" fill="#daefb2" d="M 190.5,111.5 C 191.761,116.9 191.428,122.233 189.5,127.5C 189.833,122.167 190.167,116.833 190.5,111.5 Z"/></g>
<g><path style="opacity:1" fill="#f1fde8" d="M 77.5,143.5 C 73.8333,140.833 70.1667,138.167 66.5,135.5C 66.44,134.957 66.1067,134.624 65.5,134.5C 64.52,137.086 64.1866,139.753 64.5,142.5C 63.5206,139.375 63.1872,136.042 63.5,132.5C 64.5,132.5 65.5,132.5 66.5,132.5C 66.5614,130.408 67.5614,128.908 69.5,128C 70.5,127.333 71.5,127.333 72.5,128C 70.8333,129.667 69.1667,131.333 67.5,133C 68.7861,136.224 70.9528,137.39 74,136.5C 74.4386,140.48 75.9386,141.147 78.5,138.5C 78.8333,139 79.1667,139.5 79.5,140C 78.5705,141.077 77.9038,142.244 77.5,143.5 Z"/></g>
<g><path style="opacity:1" fill="#dbeec3" d="M 0.5,131.5 C 1.98914,135.236 2.6558,139.236 2.5,143.5C 0.750055,139.817 0.0833886,135.817 0.5,131.5 Z"/></g>
<g><path style="opacity:1" fill="#f0fde3" d="M 139.5,127.5 C 139.5,130.833 139.5,134.167 139.5,137.5C 142.713,137.81 145.713,137.477 148.5,136.5C 152.248,135.793 155.914,134.793 159.5,133.5C 158.713,135.104 157.38,135.771 155.5,135.5C 155.5,136.833 155.5,138.167 155.5,139.5C 149.977,138.208 144.643,138.208 139.5,139.5C 138.191,135.351 138.191,131.351 139.5,127.5 Z"/></g>
<g><path style="opacity:1" fill="#6faf33" d="M 226.5,81.5 C 227.6,83.2774 228.434,85.2774 229,87.5C 230.221,93.965 231.387,100.298 232.5,106.5C 232.5,113.5 232.5,120.5 232.5,127.5C 230.657,133.256 229.323,139.256 228.5,145.5C 226.592,149.903 225.259,154.57 224.5,159.5C 224.167,159.5 223.833,159.5 223.5,159.5C 225.296,149.651 227.296,139.818 229.5,130C 230.491,121.18 230.658,112.347 230,103.5C 229.487,100.973 228.32,98.8067 226.5,97C 227.507,95.48 228.173,93.8133 228.5,92C 227.724,88.5105 227.058,85.0105 226.5,81.5 Z"/></g>
<g><path style="opacity:1" fill="#fcfefb" d="M -0.5,127.5 C 0.434475,128.568 0.767809,129.901 0.5,131.5C 0.0833886,135.817 0.750055,139.817 2.5,143.5C 2.83333,143.5 3.16667,143.5 3.5,143.5C 17.791,193.46 50.4577,223.127 101.5,232.5C 67.5,232.5 33.5,232.5 -0.5,232.5C -0.5,197.5 -0.5,162.5 -0.5,127.5 Z"/></g>
<g><path style="opacity:1" fill="#afd988" d="M 66.5,135.5 C 66.1555,144.381 65.1555,153.048 63.5,161.5C 63.5,161.167 63.5,160.833 63.5,160.5C 64.4553,154.591 64.7886,148.591 64.5,142.5C 64.1866,139.753 64.52,137.086 65.5,134.5C 66.1067,134.624 66.44,134.957 66.5,135.5 Z"/></g>
<g><path style="opacity:1" fill="#e4f9d0" d="M 95.5,152.5 C 102.538,153.963 109.204,155.963 115.5,158.5C 111.833,157.833 108.167,157.167 104.5,156.5C 101.5,155.167 98.5,153.833 95.5,152.5 Z"/></g>
<g><path style="opacity:1" fill="#e7fbdd" d="M 228.5,145.5 C 228.665,148.85 228.498,152.183 228,155.5C 227.26,157.319 226.093,158.652 224.5,159.5C 225.259,154.57 226.592,149.903 228.5,145.5 Z"/></g>
<g><path style="opacity:1" fill="#629e23" d="M 104.5,156.5 C 108.167,157.167 111.833,157.833 115.5,158.5C 115.5,183.167 115.5,207.833 115.5,232.5C 115.167,232.5 114.833,232.5 114.5,232.5C 114.5,208.167 114.5,183.833 114.5,159.5C 110.829,159.243 107.495,158.243 104.5,156.5 Z"/></g>
<g><path style="opacity:1" fill="#e3fbcb" d="M 157.5,159.5 C 156.391,160.29 155.058,160.79 153.5,161C 149.179,161.499 144.846,161.666 140.5,161.5C 140.47,160.503 140.97,159.836 142,159.5C 147.133,160.319 152.3,160.319 157.5,159.5 Z"/></g>
<g><path style="opacity:1" fill="#60a318" d="M 157.5,159.5 C 158.167,159.5 158.833,159.5 159.5,159.5C 158.152,161.48 156.152,162.647 153.5,163C 149.778,163.238 146.111,163.738 142.5,164.5C 141.5,185.156 141.167,205.823 141.5,226.5C 147.744,226.532 153.744,225.532 159.5,223.5C 155.115,225.68 150.448,227.347 145.5,228.5C 143.856,228.714 142.356,228.38 141,227.5C 140.5,205.503 140.333,183.503 140.5,161.5C 144.846,161.666 149.179,161.499 153.5,161C 155.058,160.79 156.391,160.29 157.5,159.5 Z"/></g>
<g><path style="opacity:1" fill="#bde39a" d="M 140.5,161.5 C 140.333,183.503 140.5,205.503 141,227.5C 142.356,228.38 143.856,228.714 145.5,228.5C 143.735,229.461 141.735,229.795 139.5,229.5C 139.169,206.661 139.503,183.994 140.5,161.5 Z"/></g>
<g><path style="opacity:1" fill="#eafbdc" d="M 191.5,204.5 C 191.52,206.143 190.853,207.476 189.5,208.5C 191.289,209.623 191.622,210.956 190.5,212.5C 189.672,211.585 188.672,210.919 187.5,210.5C 185.208,212.449 182.541,213.449 179.5,213.5C 183.476,210.531 187.476,207.531 191.5,204.5 Z"/></g>
</svg>
